<mxfile host="app.diagrams.net" modified="2023-10-09T06:58:27.906Z" agent="Mozilla/5.0 (Windows NT 10.0; Win64; x64) AppleWebKit/537.36 (KHTML, like Gecko) Chrome/117.0.0.0 Safari/537.36" etag="5o1Xkhv703We4qsc4dKe" version="22.0.4" type="github">
  <diagram name="Page-1" id="BFLiH-igY3a7zYWquiI6">
    <mxGraphModel dx="1034" dy="503" grid="1" gridSize="10" guides="1" tooltips="1" connect="1" arrows="1" fold="1" page="1" pageScale="1" pageWidth="850" pageHeight="1100" math="0" shadow="0">
      <root>
        <mxCell id="0" />
        <mxCell id="1" parent="0" />
        <mxCell id="6Sx0tj8yxyvaoHqO_PPt-1" value="&amp;lt;&amp;lt;FurnitureItems&amp;gt;&amp;gt;" style="rounded=0;whiteSpace=wrap;html=1;" vertex="1" parent="1">
          <mxGeometry x="110" y="60" width="120" height="60" as="geometry" />
        </mxCell>
        <mxCell id="6Sx0tj8yxyvaoHqO_PPt-2" value="" style="endArrow=none;dashed=1;html=1;rounded=0;exitX=0.5;exitY=0;exitDx=0;exitDy=0;entryX=1;entryY=0.25;entryDx=0;entryDy=0;" edge="1" parent="1" source="6Sx0tj8yxyvaoHqO_PPt-6">
          <mxGeometry width="50" height="50" relative="1" as="geometry">
            <mxPoint x="90" y="190" as="sourcePoint" />
            <mxPoint x="270" y="205" as="targetPoint" />
            <Array as="points">
              <mxPoint x="170" y="120" />
            </Array>
          </mxGeometry>
        </mxCell>
        <mxCell id="6Sx0tj8yxyvaoHqO_PPt-4" value="&amp;lt;&amp;lt;Sofa&amp;gt;&amp;gt;" style="rounded=0;whiteSpace=wrap;html=1;" vertex="1" parent="1">
          <mxGeometry x="20" y="190" width="120" height="60" as="geometry" />
        </mxCell>
        <mxCell id="6Sx0tj8yxyvaoHqO_PPt-6" value="&amp;lt;&amp;lt;Table&amp;gt;&amp;gt;" style="rounded=0;whiteSpace=wrap;html=1;" vertex="1" parent="1">
          <mxGeometry x="305" y="190" width="120" height="60" as="geometry" />
        </mxCell>
        <mxCell id="6Sx0tj8yxyvaoHqO_PPt-8" value="" style="endArrow=none;dashed=1;html=1;rounded=0;exitX=0.689;exitY=-0.039;exitDx=0;exitDy=0;exitPerimeter=0;" edge="1" parent="1" source="6Sx0tj8yxyvaoHqO_PPt-4">
          <mxGeometry width="50" height="50" relative="1" as="geometry">
            <mxPoint x="120" y="170" as="sourcePoint" />
            <mxPoint x="170" y="120" as="targetPoint" />
          </mxGeometry>
        </mxCell>
        <mxCell id="6Sx0tj8yxyvaoHqO_PPt-14" value="" style="endArrow=block;dashed=1;endFill=0;endSize=12;html=1;rounded=0;exitX=0.411;exitY=1.117;exitDx=0;exitDy=0;exitPerimeter=0;" edge="1" parent="1" source="6Sx0tj8yxyvaoHqO_PPt-4">
          <mxGeometry width="160" relative="1" as="geometry">
            <mxPoint x="70" y="290" as="sourcePoint" />
            <mxPoint x="50" y="350" as="targetPoint" />
            <Array as="points">
              <mxPoint x="70" y="250" />
            </Array>
          </mxGeometry>
        </mxCell>
        <mxCell id="6Sx0tj8yxyvaoHqO_PPt-15" value="" style="endArrow=block;dashed=1;endFill=0;endSize=12;html=1;rounded=0;exitX=0.517;exitY=1.183;exitDx=0;exitDy=0;exitPerimeter=0;" edge="1" parent="1">
          <mxGeometry width="160" relative="1" as="geometry">
            <mxPoint x="82.03999999999996" y="250.00000000000003" as="sourcePoint" />
            <mxPoint x="150" y="339.02" as="targetPoint" />
            <Array as="points" />
          </mxGeometry>
        </mxCell>
        <mxCell id="6Sx0tj8yxyvaoHqO_PPt-17" value="&lt;p style=&quot;margin:0px;margin-top:4px;text-align:center;&quot;&gt;&lt;br&gt;&lt;b&gt;Modern Sofa(concrete class&lt;/b&gt;&lt;/p&gt;&lt;p style=&quot;margin:0px;margin-top:4px;text-align:center;&quot;&gt;&lt;b&gt;)&lt;/b&gt;&lt;/p&gt;" style="verticalAlign=top;align=left;overflow=fill;fontSize=12;fontFamily=Helvetica;html=1;whiteSpace=wrap;" vertex="1" parent="1">
          <mxGeometry x="10" y="350" width="90" height="60" as="geometry" />
        </mxCell>
        <mxCell id="6Sx0tj8yxyvaoHqO_PPt-18" value="&lt;p style=&quot;margin:0px;margin-top:4px;text-align:center;&quot;&gt;&lt;br&gt;&lt;b&gt;Traditional Sofa(concrete class&lt;/b&gt;&lt;/p&gt;&lt;p style=&quot;margin:0px;margin-top:4px;text-align:center;&quot;&gt;&lt;b&gt;)&lt;/b&gt;&lt;/p&gt;" style="verticalAlign=top;align=left;overflow=fill;fontSize=12;fontFamily=Helvetica;html=1;whiteSpace=wrap;" vertex="1" parent="1">
          <mxGeometry x="110" y="340" width="90" height="60" as="geometry" />
        </mxCell>
        <mxCell id="6Sx0tj8yxyvaoHqO_PPt-19" value="&amp;lt;&amp;lt;Chair&amp;gt;&amp;gt;" style="rounded=0;whiteSpace=wrap;html=1;" vertex="1" parent="1">
          <mxGeometry x="170" y="190" width="120" height="60" as="geometry" />
        </mxCell>
        <mxCell id="6Sx0tj8yxyvaoHqO_PPt-20" value="" style="endArrow=block;dashed=1;endFill=0;endSize=12;html=1;rounded=0;entryX=0.25;entryY=0;entryDx=0;entryDy=0;" edge="1" parent="1" target="6Sx0tj8yxyvaoHqO_PPt-22">
          <mxGeometry width="160" relative="1" as="geometry">
            <mxPoint x="230" y="250" as="sourcePoint" />
            <mxPoint x="240" y="310" as="targetPoint" />
            <Array as="points" />
          </mxGeometry>
        </mxCell>
        <mxCell id="6Sx0tj8yxyvaoHqO_PPt-21" value="" style="endArrow=block;dashed=1;endFill=0;endSize=12;html=1;rounded=0;exitX=0.683;exitY=0.972;exitDx=0;exitDy=0;exitPerimeter=0;entryX=0.25;entryY=0;entryDx=0;entryDy=0;" edge="1" parent="1">
          <mxGeometry width="160" relative="1" as="geometry">
            <mxPoint x="240.00000000000003" y="250.00000000000006" as="sourcePoint" />
            <mxPoint x="339.29" y="331.68" as="targetPoint" />
            <Array as="points" />
          </mxGeometry>
        </mxCell>
        <mxCell id="6Sx0tj8yxyvaoHqO_PPt-22" value="&lt;p style=&quot;margin:0px;margin-top:4px;text-align:center;&quot;&gt;&lt;br&gt;&lt;b&gt;Modern Chair(concrete class&lt;/b&gt;&lt;/p&gt;&lt;p style=&quot;margin:0px;margin-top:4px;text-align:center;&quot;&gt;&lt;b&gt;)&lt;/b&gt;&lt;/p&gt;" style="verticalAlign=top;align=left;overflow=fill;fontSize=12;fontFamily=Helvetica;html=1;whiteSpace=wrap;" vertex="1" parent="1">
          <mxGeometry x="230" y="340" width="60" height="50" as="geometry" />
        </mxCell>
        <mxCell id="6Sx0tj8yxyvaoHqO_PPt-23" value="&lt;p style=&quot;margin:0px;margin-top:4px;text-align:center;&quot;&gt;&lt;br&gt;&lt;b&gt;Traditional Chair&lt;/b&gt;&lt;/p&gt;&lt;p style=&quot;margin:0px;margin-top:4px;text-align:center;&quot;&gt;&lt;br&gt;&lt;/p&gt;" style="verticalAlign=top;align=left;overflow=fill;fontSize=12;fontFamily=Helvetica;html=1;whiteSpace=wrap;" vertex="1" parent="1">
          <mxGeometry x="305" y="330" width="65" height="50" as="geometry" />
        </mxCell>
        <mxCell id="6Sx0tj8yxyvaoHqO_PPt-29" value="" style="endArrow=block;dashed=1;endFill=0;endSize=12;html=1;rounded=0;entryX=0.25;entryY=0;entryDx=0;entryDy=0;" edge="1" parent="1">
          <mxGeometry width="160" relative="1" as="geometry">
            <mxPoint x="410" y="250" as="sourcePoint" />
            <mxPoint x="425" y="340" as="targetPoint" />
            <Array as="points" />
          </mxGeometry>
        </mxCell>
        <mxCell id="6Sx0tj8yxyvaoHqO_PPt-30" value="" style="endArrow=block;dashed=1;endFill=0;endSize=12;html=1;rounded=0;exitX=0.683;exitY=0.972;exitDx=0;exitDy=0;exitPerimeter=0;entryX=0.25;entryY=0;entryDx=0;entryDy=0;" edge="1" parent="1" source="6Sx0tj8yxyvaoHqO_PPt-32">
          <mxGeometry width="160" relative="1" as="geometry">
            <mxPoint x="425" y="250" as="sourcePoint" />
            <mxPoint x="524" y="332" as="targetPoint" />
            <Array as="points" />
          </mxGeometry>
        </mxCell>
        <mxCell id="6Sx0tj8yxyvaoHqO_PPt-31" value="&lt;p style=&quot;margin:0px;margin-top:4px;text-align:center;&quot;&gt;Modern Table&lt;/p&gt;" style="verticalAlign=top;align=left;overflow=fill;fontSize=12;fontFamily=Helvetica;html=1;whiteSpace=wrap;" vertex="1" parent="1">
          <mxGeometry x="400" y="340" width="65" height="50" as="geometry" />
        </mxCell>
        <mxCell id="6Sx0tj8yxyvaoHqO_PPt-35" value="&amp;lt;&amp;lt;Furniture Factory&amp;gt;&amp;gt;" style="swimlane;fontStyle=1;align=center;verticalAlign=top;childLayout=stackLayout;horizontal=1;startSize=26;horizontalStack=0;resizeParent=1;resizeParentMax=0;resizeLast=0;collapsible=1;marginBottom=0;whiteSpace=wrap;html=1;" vertex="1" parent="1">
          <mxGeometry x="530" y="150" width="270" height="86" as="geometry" />
        </mxCell>
        <mxCell id="6Sx0tj8yxyvaoHqO_PPt-36" value="+ createSofa()&amp;nbsp; &amp;nbsp;+createTable() +createChair()" style="text;strokeColor=none;fillColor=none;align=left;verticalAlign=top;spacingLeft=4;spacingRight=4;overflow=hidden;rotatable=0;points=[[0,0.5],[1,0.5]];portConstraint=eastwest;whiteSpace=wrap;html=1;" vertex="1" parent="6Sx0tj8yxyvaoHqO_PPt-35">
          <mxGeometry y="26" width="270" height="26" as="geometry" />
        </mxCell>
        <mxCell id="6Sx0tj8yxyvaoHqO_PPt-37" value="" style="line;strokeWidth=1;fillColor=none;align=left;verticalAlign=middle;spacingTop=-1;spacingLeft=3;spacingRight=3;rotatable=0;labelPosition=right;points=[];portConstraint=eastwest;strokeColor=inherit;" vertex="1" parent="6Sx0tj8yxyvaoHqO_PPt-35">
          <mxGeometry y="52" width="270" height="8" as="geometry" />
        </mxCell>
        <mxCell id="6Sx0tj8yxyvaoHqO_PPt-38" value="&lt;u&gt;+ createFurnitureFactory(Enum): static method&lt;/u&gt;" style="text;strokeColor=none;fillColor=none;align=left;verticalAlign=top;spacingLeft=4;spacingRight=4;overflow=hidden;rotatable=0;points=[[0,0.5],[1,0.5]];portConstraint=eastwest;whiteSpace=wrap;html=1;" vertex="1" parent="6Sx0tj8yxyvaoHqO_PPt-35">
          <mxGeometry y="60" width="270" height="26" as="geometry" />
        </mxCell>
        <mxCell id="6Sx0tj8yxyvaoHqO_PPt-40" value="" style="endArrow=block;dashed=1;endFill=0;endSize=12;html=1;rounded=0;exitX=0.427;exitY=1.192;exitDx=0;exitDy=0;exitPerimeter=0;" edge="1" parent="1" source="6Sx0tj8yxyvaoHqO_PPt-38">
          <mxGeometry width="160" relative="1" as="geometry">
            <mxPoint x="615" y="256" as="sourcePoint" />
            <mxPoint x="770" y="430" as="targetPoint" />
            <Array as="points">
              <mxPoint x="770" y="430" />
            </Array>
          </mxGeometry>
        </mxCell>
        <mxCell id="6Sx0tj8yxyvaoHqO_PPt-42" value="" style="endArrow=block;dashed=1;endFill=0;endSize=12;html=1;rounded=0;exitX=0.277;exitY=1.397;exitDx=0;exitDy=0;exitPerimeter=0;" edge="1" parent="1" source="6Sx0tj8yxyvaoHqO_PPt-38" target="6Sx0tj8yxyvaoHqO_PPt-41">
          <mxGeometry width="160" relative="1" as="geometry">
            <mxPoint x="605" y="246" as="sourcePoint" />
            <mxPoint x="600" y="460" as="targetPoint" />
            <Array as="points" />
          </mxGeometry>
        </mxCell>
        <mxCell id="6Sx0tj8yxyvaoHqO_PPt-44" style="edgeStyle=orthogonalEdgeStyle;rounded=0;orthogonalLoop=1;jettySize=auto;html=1;" edge="1" parent="1" source="6Sx0tj8yxyvaoHqO_PPt-41">
          <mxGeometry relative="1" as="geometry">
            <mxPoint x="50" y="420" as="targetPoint" />
            <Array as="points">
              <mxPoint x="51" y="510" />
            </Array>
          </mxGeometry>
        </mxCell>
        <mxCell id="6Sx0tj8yxyvaoHqO_PPt-47" value="creates&amp;nbsp;" style="edgeLabel;html=1;align=center;verticalAlign=middle;resizable=0;points=[];" vertex="1" connectable="0" parent="6Sx0tj8yxyvaoHqO_PPt-44">
          <mxGeometry x="0.4047" y="-9" relative="1" as="geometry">
            <mxPoint as="offset" />
          </mxGeometry>
        </mxCell>
        <mxCell id="6Sx0tj8yxyvaoHqO_PPt-45" style="edgeStyle=orthogonalEdgeStyle;rounded=0;orthogonalLoop=1;jettySize=auto;html=1;entryX=0.5;entryY=1;entryDx=0;entryDy=0;" edge="1" parent="1">
          <mxGeometry relative="1" as="geometry">
            <mxPoint x="555" y="490" as="sourcePoint" />
            <mxPoint x="275" y="400" as="targetPoint" />
          </mxGeometry>
        </mxCell>
        <mxCell id="6Sx0tj8yxyvaoHqO_PPt-46" style="edgeStyle=orthogonalEdgeStyle;rounded=0;orthogonalLoop=1;jettySize=auto;html=1;entryX=0.5;entryY=1;entryDx=0;entryDy=0;" edge="1" parent="1" source="6Sx0tj8yxyvaoHqO_PPt-41" target="6Sx0tj8yxyvaoHqO_PPt-31">
          <mxGeometry relative="1" as="geometry" />
        </mxCell>
        <mxCell id="6Sx0tj8yxyvaoHqO_PPt-41" value="ModernFurnitureFactory" style="html=1;whiteSpace=wrap;" vertex="1" parent="1">
          <mxGeometry x="540" y="450" width="140" height="60" as="geometry" />
        </mxCell>
        <mxCell id="6Sx0tj8yxyvaoHqO_PPt-50" style="edgeStyle=orthogonalEdgeStyle;rounded=0;orthogonalLoop=1;jettySize=auto;html=1;entryX=0.5;entryY=1;entryDx=0;entryDy=0;" edge="1" parent="1" source="6Sx0tj8yxyvaoHqO_PPt-43" target="6Sx0tj8yxyvaoHqO_PPt-32">
          <mxGeometry relative="1" as="geometry" />
        </mxCell>
        <mxCell id="6Sx0tj8yxyvaoHqO_PPt-54" style="edgeStyle=orthogonalEdgeStyle;rounded=0;orthogonalLoop=1;jettySize=auto;html=1;entryX=0.5;entryY=1;entryDx=0;entryDy=0;" edge="1" parent="1" source="6Sx0tj8yxyvaoHqO_PPt-43" target="6Sx0tj8yxyvaoHqO_PPt-18">
          <mxGeometry relative="1" as="geometry" />
        </mxCell>
        <mxCell id="6Sx0tj8yxyvaoHqO_PPt-43" value="TraditionalFurnitureFactory" style="html=1;whiteSpace=wrap;" vertex="1" parent="1">
          <mxGeometry x="700" y="400" width="150" height="60" as="geometry" />
        </mxCell>
        <mxCell id="6Sx0tj8yxyvaoHqO_PPt-49" style="edgeStyle=orthogonalEdgeStyle;rounded=0;orthogonalLoop=1;jettySize=auto;html=1;entryX=0.641;entryY=1.06;entryDx=0;entryDy=0;entryPerimeter=0;" edge="1" parent="1" source="6Sx0tj8yxyvaoHqO_PPt-43" target="6Sx0tj8yxyvaoHqO_PPt-23">
          <mxGeometry relative="1" as="geometry" />
        </mxCell>
        <mxCell id="6Sx0tj8yxyvaoHqO_PPt-51" value="" style="endArrow=block;dashed=1;endFill=0;endSize=12;html=1;rounded=0;exitX=0.683;exitY=0.972;exitDx=0;exitDy=0;exitPerimeter=0;entryX=0.25;entryY=0;entryDx=0;entryDy=0;" edge="1" parent="1" target="6Sx0tj8yxyvaoHqO_PPt-32">
          <mxGeometry width="160" relative="1" as="geometry">
            <mxPoint x="425" y="250" as="sourcePoint" />
            <mxPoint x="524" y="332" as="targetPoint" />
            <Array as="points" />
          </mxGeometry>
        </mxCell>
        <mxCell id="6Sx0tj8yxyvaoHqO_PPt-32" value="&lt;p style=&quot;margin:0px;margin-top:4px;text-align:center;&quot;&gt;Traditional Table&lt;/p&gt;" style="verticalAlign=top;align=left;overflow=fill;fontSize=12;fontFamily=Helvetica;html=1;whiteSpace=wrap;" vertex="1" parent="1">
          <mxGeometry x="490" y="310" width="65" height="50" as="geometry" />
        </mxCell>
      </root>
    </mxGraphModel>
  </diagram>
</mxfile>
